<svg xmlns="http://www.w3.org/2000/svg" width="15" height="15" fill="none">
  <g clip-path="url(#a)">
    <path fill="#fff" d="M10.795 15c-2.63 0-5.438-.966-7.633-3.162A10.765 10.765 0 0 1 0 4.205 4.203 4.203 0 0 1 4.205 0c.18 0 .341.11.408.276l1.883 4.707a.44.44 0 0 1-.245.572l-2.068.827a4.745 4.745 0 0 0 4.435 4.435l.828-2.068a.44.44 0 0 1 .57-.245l4.708 1.883a.44.44 0 0 1 .276.408A4.203 4.203 0 0 1 10.795 15ZM3.913.892A3.325 3.325 0 0 0 .879 4.205a9.85 9.85 0 0 0 2.904 7.012 9.851 9.851 0 0 0 7.012 2.904 3.325 3.325 0 0 0 3.313-3.034l-4.01-1.604-.778 1.946a.44.44 0 0 1-.408.276 5.623 5.623 0 0 1-5.617-5.617c0-.18.11-.341.276-.408l1.946-.778L3.913.892Z"/>
  </g>
  <defs>
    <clipPath id="a">
      <path fill="#fff" d="M0 0h15v15H0z"/>
    </clipPath>
  </defs>
</svg>
